<?xml version="1.0"?>
<svg xmlns="http://www.w3.org/2000/svg" xmlns:xlink="http://www.w3.org/1999/xlink" xmlns:svgjs="http://svgjs.com/svgjs" version="1.1" width="512" height="512" x="0" y="0" viewBox="0 0 512 512" style="enable-background:new 0 0 512 512" xml:space="preserve" class=""><g transform="matrix(-0.9999999999999999,-2.449293598294706e-16,-2.449293598294706e-16,0.9999999999999999,512,-4.999999999999886)"><path xmlns="http://www.w3.org/2000/svg" d="M325.08,383H226.747a6,6,0,0,0,0,12H319v33H193V395h8a6,6,0,0,0,0-12H186.92c-3.314,0-5.92,3.137-5.92,6.45v45c0,3.314,2.606,5.55,5.92,5.55H325.08c3.314,0,5.92-2.236,5.92-5.55v-45C331,386.137,328.394,383,325.08,383Z" fill="#0a3357" data-original="#000000" style="" class=""/><path xmlns="http://www.w3.org/2000/svg" d="M163,398.1a6,6,0,0,0-6,6v32.59a6,6,0,1,0,12,0V404.1A6,6,0,0,0,163,398.1Z" fill="#0a3357" data-original="#000000" style="" class=""/><path xmlns="http://www.w3.org/2000/svg" d="M163,376.78a6,6,0,0,0-6,6v3.65a6,6,0,1,0,12,0v-3.65A6,6,0,0,0,163,376.78Z" fill="#0a3357" data-original="#000000" style="" class=""/><path xmlns="http://www.w3.org/2000/svg" d="M390.7,466.839,378,456.155V363.72a5.632,5.632,0,0,0-5.84-5.72H341.312a28.7,28.7,0,0,0-27.932-23H294.606c-15.62-32-37.952-89.854-27.418-145.966a139.576,139.576,0,0,1,21.661-14.461l37.781,21.541a5.988,5.988,0,0,0,8.914-6.011l-7.792-56.913L370.211,94.5a6,6,0,0,0-2.979-10.339L310.7,73.993,287.026,21.657a6,6,0,0,0-10.755-.362l-27.139,50.62-57.094,6.342a6,6,0,0,0-3.669,10.116l29.873,31.154c-26.653,33.249-37.647,74.078-32.667,121.619C189.39,277.561,201.974,311,213.286,335H198.62a28.7,28.7,0,0,0-27.932,23H139.84a5.632,5.632,0,0,0-5.84,5.72v92.435l-12.7,10.684A6.2,6.2,0,0,0,119,471.4v16.47a6.322,6.322,0,0,0,6.24,6.13H386.76a6.322,6.322,0,0,0,6.24-6.13V471.4A6.2,6.2,0,0,0,390.7,466.839ZM281.3,335H234.47c-6.172-38-5.85-70.564,1-95.567,3.815-13.92,9.643-25.877,17.665-36.091C248.749,254.29,266.812,304,281.3,335ZM205.444,88.841l48.148-5.348a6,6,0,0,0,4.626-3.128L281.1,37.68l19.96,44.132a6,6,0,0,0,4.405,3.433l47.675,8.577-35.8,32.623a6,6,0,0,0-1.9,5.249l6.57,48-42.085-23.973a6,6,0,0,0-5.582-.189l-43.615,21.08,9.792-47.435a6,6,0,0,0-1.545-5.365l-8.37-8.73h0ZM197.51,239.976c-4.575-43.67,5.224-81.211,29.115-111.706l1.5,1.566-11.612,56.251A6,6,0,0,0,225,192.7l51.72-25,.051.029a135.733,135.733,0,0,0-19.015,13.617c-16.567,14.316-27.642,32.3-33.859,54.991-6.476,23.631-7.6,51.815-3.423,85.672C210.666,299.775,200.75,270.9,197.51,239.976ZM198.62,347H313.38a16.819,16.819,0,0,1,15.411,11H183.209A16.819,16.819,0,0,1,198.62,347ZM146,370H366v83H146ZM381,482H131v-7.835L142.055,465h227.89L381,474.165Z" fill="#0a3357" data-original="#000000" style="" class=""/></g></svg>
